<svg xmlns="http://www.w3.org/2000/svg" width="1200" height="630" viewBox="0 0 1200 630">
  <defs>
    <linearGradient id="bg" x1="0" x2="1" y1="0" y2="1">
      <stop offset="0" stop-color="#080b14"/>
      <stop offset="0.48" stop-color="#111827"/>
      <stop offset="1" stop-color="#27120a"/>
    </linearGradient>
    <radialGradient id="glow" cx="75%" cy="28%" r="55%">
      <stop offset="0" stop-color="#fbbf24" stop-opacity="0.65"/>
      <stop offset="0.35" stop-color="#38bdf8" stop-opacity="0.32"/>
      <stop offset="1" stop-color="#000000" stop-opacity="0"/>
    </radialGradient>
    <filter id="shadow" x="-20%" y="-20%" width="140%" height="140%">
      <feDropShadow dx="0" dy="16" stdDeviation="18" flood-color="#000" flood-opacity="0.38"/>
    </filter>
  </defs>
  <rect width="1200" height="630" fill="url(#bg)"/>
  <rect width="1200" height="630" fill="url(#glow)"/>
  <path d="M0 475 C210 365 355 565 570 455 C760 358 840 210 1200 145 L1200 630 L0 630 Z" fill="#0ea5e9" opacity="0.15"/>
  <path d="M0 535 C210 410 390 600 625 495 C815 410 910 290 1200 235" fill="none" stroke="#60a5fa" stroke-width="7" opacity="0.62"/>
  <path d="M0 560 C260 455 430 610 700 500 C890 420 970 330 1200 292" fill="none" stroke="#f59e0b" stroke-width="5" opacity="0.72"/>
  <g transform="translate(800 95)" filter="url(#shadow)">
    <circle cx="135" cy="135" r="110" fill="#111827" stroke="#fbbf24" stroke-width="10"/>
    <circle cx="135" cy="135" r="82" fill="none" stroke="#38bdf8" stroke-width="8" opacity="0.85"/>
    <path d="M135 28 L167 102 L248 110 L187 162 L205 242 L135 199 L65 242 L83 162 L22 110 L103 102 Z" fill="#fbbf24"/>
    <path d="M80 330 L190 330 L160 245 L110 245 Z" fill="#d97706"/>
    <rect x="55" y="330" width="160" height="34" rx="17" fill="#f8fafc"/>
  </g>
  <g transform="translate(70 70)">
    <rect x="0" y="0" width="310" height="42" rx="21" fill="#ffffff" opacity="0.12"/>
    <text x="22" y="28" fill="#fbbf24" font-size="20" font-weight="800" font-family="Arial, 'PingFang TC', 'Noto Sans TC', sans-serif" letter-spacing="3">TAIWAN SPORTS GRID</text>
    <text x="0" y="150" fill="#ffffff" font-size="78" font-weight="900" font-family="'PingFang TC', 'Noto Sans TC', Arial, sans-serif">台灣體育賽事日曆</text>
    <text x="0" y="225" fill="#e5e7eb" font-size="42" font-weight="800" font-family="'PingFang TC', 'Noto Sans TC', Arial, sans-serif">台灣時間・MOD 頻道・每日更新</text>
    <text x="0" y="308" fill="#cbd5e1" font-size="28" font-weight="700" font-family="'PingFang TC', 'Noto Sans TC', Arial, sans-serif">環法・F1・世界盃・道奇・NBA・MLB・NFL・中職・UFC</text>
    <g transform="translate(0 370)">
      <rect x="0" y="0" width="188" height="54" rx="14" fill="#fbbf24"/>
      <text x="28" y="36" fill="#111827" font-size="23" font-weight="900" font-family="'PingFang TC', Arial, sans-serif">今晚看哪場</text>
      <rect x="210" y="0" width="218" height="54" rx="14" fill="#ffffff" opacity="0.12"/>
      <text x="238" y="36" fill="#ffffff" font-size="23" font-weight="900" font-family="'PingFang TC', Arial, sans-serif">7 天熱門行程</text>
    </g>
  </g>
</svg>
